<?xml version="1.0" encoding="UTF-8"?>
<svg id="Layer_1" xmlns="http://www.w3.org/2000/svg" version="1.1" viewBox="0 0 24 24">
  <!-- Generator: Adobe Illustrator 30.2.1, SVG Export Plug-In . SVG Version: 2.1.1 Build 1)  -->
  <defs>
    <style>
      .st0 {
        fill: #fff;
        fill-rule: evenodd;
      }
    </style>
  </defs>
  <path class="st0" d="M2.25,12C2.25,6.62,6.62,2.25,12,2.25s9.75,4.37,9.75,9.75-4.37,9.75-9.75,9.75S2.25,17.38,2.25,12ZM15.61,10.19c.24-.34.16-.81-.17-1.05-.34-.24-.81-.16-1.05.17l-3.24,4.53-1.62-1.62c-.29-.29-.77-.29-1.06,0-.29.29-.29.77,0,1.06l2.25,2.25c.16.16.37.24.59.22.22-.02.42-.13.55-.31l3.75-5.25Z"/>
</svg>