<?xml version="1.0" encoding="UTF-8"?>
<svg id="Layer_1" xmlns="http://www.w3.org/2000/svg" version="1.1" viewBox="0 0 24 24">
  <!-- Generator: Adobe Illustrator 30.2.1, SVG Export Plug-In . SVG Version: 2.1.1 Build 1)  -->
  <defs>
    <style>
      .st0 {
        fill: #fff;
      }
    </style>
  </defs>
  <path class="st0" d="M9,3.25c-1.04,0-1.88.84-1.88,1.88s.84,1.88,1.88,1.88h1.88v4.5H3c-1.04,0-1.88-.84-1.88-1.87v-.75c0-1.04.84-1.87,1.88-1.87h3.19c-.36-.54-.57-1.18-.57-1.88,0-1.86,1.51-3.38,3.38-3.38,1.06,0,2.01.49,2.62,1.25.62-.76,1.56-1.25,2.62-1.25,1.86,0,3.38,1.51,3.38,3.38,0,.69-.21,1.34-.57,1.88h3.94c1.04,0,1.88.84,1.88,1.87v.75c0,1.04-.84,1.87-1.88,1.87h-8.62v-4.5h1.88c1.04,0,1.88-.84,1.88-1.88s-.84-1.88-1.88-1.88-1.88.84-1.88,1.88v1.88h-1.5v-1.88c0-1.04-.84-1.88-1.88-1.88Z"/>
  <path class="st0" d="M10.88,13H2.62v6.75c0,1.24,1.01,2.25,2.25,2.25h6v-9Z"/>
  <path class="st0" d="M12.38,13v9h6.75c1.24,0,2.25-1.01,2.25-2.25v-6.75h-9Z"/>
</svg>