<?xml version="1.0" encoding="UTF-8"?>
<svg id="Layer_1" xmlns="http://www.w3.org/2000/svg" version="1.1" viewBox="0 0 24 24">
  <!-- Generator: Adobe Illustrator 30.2.1, SVG Export Plug-In . SVG Version: 2.1.1 Build 1)  -->
  <defs>
    <style>
      .st0 {
        fill: #fff;
      }
    </style>
  </defs>
  <path class="st0" d="M3.38,4.5c-1.04,0-1.88.84-1.88,1.88v7.12h12v-7.12c0-1.04-.84-1.88-1.88-1.88H3.38Z"/>
  <path class="st0" d="M13.5,15H1.5v2.62c0,1.04.84,1.88,1.88,1.88h.38c0-1.66,1.34-3,3-3s3,1.34,3,3h3c.41,0,.75-.34.75-.75v-3.75Z"/>
  <path class="st0" d="M8.25,19.5c0-.83-.67-1.5-1.5-1.5s-1.5.67-1.5,1.5.67,1.5,1.5,1.5,1.5-.67,1.5-1.5Z"/>
  <path class="st0" d="M15.75,6.75c-.41,0-.75.34-.75.75v11.25c0,.09.01.17.04.25.24-1.42,1.47-2.5,2.96-2.5,1.64,0,2.98,1.32,3,2.96.85-.18,1.52-.94,1.46-1.88-.23-3.78-1.59-7.26-3.73-10.1-.35-.47-.91-.72-1.47-.72h-1.51Z"/>
  <path class="st0" d="M19.5,19.5c0-.83-.67-1.5-1.5-1.5s-1.5.67-1.5,1.5.67,1.5,1.5,1.5,1.5-.67,1.5-1.5Z"/>
</svg>